<svg width="25" height="25" viewBox="0 0 25 25" fill="none" xmlns="http://www.w3.org/2000/svg">
<path d="M12.5 0C5.625 0 0 5.625 0 12.5C0 19.375 5.625 25 12.5 25C19.375 25 25 19.375 25 12.5C25 5.625 19.375 0 12.5 0ZM12.5 23.2955C6.53409 23.2955 1.70455 18.4659 1.70455 12.5C1.70455 6.53409 6.53409 1.70455 12.5 1.70455C18.4659 1.70455 23.2955 6.53409 23.2955 12.5C23.2955 18.4659 18.4659 23.2955 12.5 23.2955Z" fill="#D7D9DF"/>
<path d="M18.1818 11.9319H13.0682V5.68186C13.0682 5.22732 12.6705 4.82959 12.2159 4.82959C11.7614 4.82959 11.3636 5.22732 11.3636 5.68186V13.6364H12.5H13.0682H18.1818C18.6364 13.6364 19.0341 13.2387 19.0341 12.7841C19.0341 12.3296 18.6364 11.9319 18.1818 11.9319Z" fill="#D7D9DF"/>
</svg>
