<svg width="25" height="18" viewBox="0 0 25 18" fill="none" xmlns="http://www.w3.org/2000/svg">
<path d="M15.0577 8.6539C15.7162 8.6539 16.25 8.12009 16.25 7.46159C16.25 6.8031 15.7162 6.26929 15.0577 6.26929C14.3992 6.26929 13.8654 6.8031 13.8654 7.46159C13.8654 8.12009 14.3992 8.6539 15.0577 8.6539Z" fill="#D7D9DF"/>
<path d="M13.2692 13.4231C15.5739 13.4231 17.4423 11.5547 17.4423 9.24998C17.4423 6.94525 15.5739 5.0769 13.2692 5.0769C10.9645 5.0769 9.09613 6.94525 9.09613 9.24998C9.09613 11.5547 10.9645 13.4231 13.2692 13.4231Z" stroke="#D7D9DF" stroke-width="1.5" stroke-linecap="round" stroke-linejoin="round"/>
<path d="M0.75 9.25C0.75 9.25 4.90179 1.5 12.375 1.5C19.8482 1.5 24 9.25 24 9.25C24 9.25 19.8482 17 12.375 17C4.90179 17 0.75 9.25 0.75 9.25Z" stroke="#D7D9DF" stroke-width="1.5" stroke-linecap="round" stroke-linejoin="round"/>
</svg>
