<svg width="25" height="17" viewBox="0 0 25 17" fill="none" xmlns="http://www.w3.org/2000/svg">
<path d="M12.5 7.92308C12.8343 7.92308 13.1053 7.66478 13.1053 7.34615C13.1053 7.02753 12.8343 6.76923 12.5 6.76923C12.1657 6.76923 11.8947 7.02753 11.8947 7.34615C11.8947 7.66478 12.1657 7.92308 12.5 7.92308Z" stroke="white" stroke-linecap="round" stroke-linejoin="round"/>
<path d="M12.5 13.6923C15.5085 13.6923 17.9474 11.3676 17.9474 8.5C17.9474 5.63237 15.5085 3.30769 12.5 3.30769C9.4915 3.30769 7.05263 5.63237 7.05263 8.5C7.05263 11.3676 9.4915 13.6923 12.5 13.6923Z" stroke="white" stroke-linecap="round" stroke-linejoin="round"/>
<path d="M1 8.5C1 8.5 5.10714 1 12.5 1C19.8929 1 24 8.5 24 8.5C24 8.5 19.8929 16 12.5 16C5.10714 16 1 8.5 1 8.5Z" stroke="white" stroke-linecap="round" stroke-linejoin="round"/>
</svg>
