<svg width="28" height="28" viewBox="0 0 28 28" fill="none" xmlns="http://www.w3.org/2000/svg">
  <g clip-path="url(#clip0_3_28)">
    <path d="M26.7923 19.0356C27.3662 18.3036 27.6414 17.519 27.6062 16.711C27.5711 15.821 27.1729 15.1242 26.845 14.6968C27.2256 13.7482 27.372 12.2551 26.1014 11.0958C25.1704 10.2468 23.5895 9.86616 21.3996 9.97156C19.8597 10.0418 18.5715 10.3287 18.5188 10.3404H18.513C18.2202 10.3931 17.9099 10.4575 17.5937 10.5278C17.5703 10.1531 17.6347 9.22208 18.3256 7.12589C19.1453 4.63153 19.0985 2.72271 18.1734 1.44626C17.2014 0.105395 15.6497 0 15.193 0C14.7539 0 14.3498 0.181514 14.0629 0.515266C13.413 1.2706 13.4891 2.66416 13.5711 3.30824C12.7982 5.38101 10.6317 10.4634 8.79903 11.8745C8.7639 11.898 8.73463 11.9272 8.70535 11.9565C8.16666 12.5245 7.80363 13.1393 7.55771 13.678C7.21225 13.4906 6.81995 13.3852 6.39836 13.3852H2.82664C1.47992 13.3852 0.390839 14.4801 0.390839 15.821V25.3358C0.390839 26.6826 1.48578 27.7716 2.82664 27.7716H6.39836C6.91949 27.7716 7.40547 27.6077 7.80363 27.3266L9.17963 27.4906C9.39042 27.5199 13.1378 27.9941 16.9847 27.918C17.6815 27.9707 18.3373 28 18.9463 28C19.9943 28 20.9078 27.918 21.669 27.7541C23.4607 27.3735 24.6844 26.6123 25.3051 25.4939C25.7794 24.6391 25.7794 23.79 25.7033 23.2514C26.8685 22.1974 27.0734 21.0322 27.0324 20.2125C27.009 19.7382 26.9036 19.3342 26.7923 19.0356ZM2.82664 26.1907C2.35236 26.1907 1.97177 25.8043 1.97177 25.3358V15.8151C1.97177 15.3409 2.35822 14.9603 2.82664 14.9603H6.39836C6.87264 14.9603 7.25324 15.3467 7.25324 15.8151V25.33C7.25324 25.8043 6.86679 26.1849 6.39836 26.1849H2.82664V26.1907V26.1907ZM25.2934 18.3505C25.0475 18.6081 25.0006 19.0004 25.188 19.3049C25.188 19.3107 25.4281 19.7206 25.4573 20.2827C25.4983 21.0498 25.1294 21.729 24.3565 22.3087C24.0813 22.5194 23.9701 22.8825 24.0872 23.2104C24.0872 23.2162 24.339 23.9891 23.9291 24.721C23.5368 25.4237 22.6644 25.9272 21.3411 26.2083C20.2813 26.4366 18.8409 26.4776 17.0726 26.3371C17.0491 26.3371 17.0199 26.3371 16.9906 26.3371C13.2256 26.4191 9.41969 25.9272 9.37871 25.9214H9.37285L8.78147 25.8511C8.8166 25.6872 8.83416 25.5115 8.83416 25.3358V15.8151C8.83416 15.5634 8.79318 15.3174 8.72291 15.0891C8.82831 14.6968 9.12107 13.8243 9.812 13.0807C12.441 10.9962 15.0115 3.96403 15.1227 3.65956C15.1696 3.5366 15.1813 3.40192 15.1579 3.26725C15.0583 2.61146 15.0935 1.80928 15.234 1.56922C15.5443 1.57507 16.3816 1.6629 16.8852 2.35968C17.4824 3.18528 17.459 4.66081 16.8149 6.61648C15.8312 9.59682 15.7493 11.166 16.528 11.857C16.9145 12.2024 17.4297 12.22 17.8045 12.0853C18.1616 12.0033 18.5012 11.9331 18.8233 11.8804C18.8467 11.8745 18.876 11.8687 18.8994 11.8628C20.697 11.4705 23.9174 11.2304 25.0358 12.2493C25.9843 13.1159 25.3109 14.2635 25.2348 14.3864C25.0182 14.7143 25.0826 15.1418 25.3754 15.4053C25.3812 15.4111 25.996 15.9908 26.0253 16.7696C26.0487 17.2907 25.8028 17.8235 25.2934 18.3505Z" fill="currentColor" />
  </g>
  <defs>
    <clipPath id="clip0_3_28">
      <rect width="28" height="28" fill="white" />
    </clipPath>
  </defs>
</svg>
