<svg width="25" height="25" viewBox="0 0 25 25" fill="none" xmlns="http://www.w3.org/2000/svg">
  <rect x="0.5" y="0.5" width="24" height="24" rx="3.5" stroke="currentColor" />
  <path d="M18.3482 14.5483C19.5548 15.7177 19.8061 16.2895 19.8468 16.3598C20.3449 17.2269 19.2945 17.2949 19.2945 17.2949L17.2819 17.3253C17.2819 17.3253 16.8472 17.4144 16.279 17.0043C15.5252 16.4653 14.4951 15.0592 13.9427 15.242C13.3813 15.4271 13.5602 16.9012 13.5602 16.9012C13.5602 16.9012 13.5647 17.0816 13.4379 17.2269C13.2975 17.3792 13.0259 17.3206 13.0259 17.3206H12.4463C12.4463 17.3206 10.298 17.33 8.54574 15.4224C6.63733 13.3438 5.04132 9.45601 5.04132 9.45601C5.04132 9.45601 4.94398 9.20995 5.04811 9.07871C5.1681 8.93108 5.49182 8.93342 5.49182 8.93342H7.64474C7.64474 8.93342 7.84622 8.96154 7.9911 9.07403C8.11335 9.16542 8.179 9.33884 8.179 9.33884C8.179 9.33884 8.43934 10.063 8.90117 10.8972C9.79991 12.5236 10.2187 12.8798 10.5243 12.704C10.9681 12.4486 10.8345 10.4051 10.8345 10.4051C10.8345 10.4051 10.8435 9.66223 10.6104 9.33181C10.4293 9.07403 10.0919 8.99904 9.94253 8.97795C9.82029 8.96389 10.0195 8.66861 10.2776 8.53738C10.6647 8.34053 11.3506 8.32647 12.1588 8.33584C12.7882 8.34287 13.0259 8.3335 13.0259 8.3335C13.7684 8.52097 13.5171 9.24744 13.5171 10.9816C13.5171 11.5393 13.4198 12.3221 13.8046 12.5798C13.9699 12.6947 14.563 12.7111 15.5704 10.9183C16.0504 10.0677 16.4284 9.26853 16.4284 9.26853C16.4284 9.26853 16.5099 9.08809 16.6299 9.0131C16.7567 8.93342 16.9242 8.93342 16.9242 8.93342L19.1903 8.94514C19.1903 8.94514 19.8717 8.85609 19.9804 9.17948C20.0959 9.51694 19.702 10.1075 18.7783 11.3987C17.257 13.5196 17.0872 13.3227 18.3482 14.5483Z" fill="currentColor" />
</svg>
