<svg width="11" height="15" viewBox="0 0 11 15" fill="none" xmlns="http://www.w3.org/2000/svg">
<path fill-rule="evenodd" clip-rule="evenodd" d="M4.26664 1.42306C4.20509 0.842093 3.9813 0.76461 3.77802 0.695984C3.61254 0.638573 3.42117 0.581795 3.2298 0.525018C3.04079 0.468941 2.70625 0.452844 2.35179 0.685854C1.99571 0.915615 1.03163 1.44453 0.579624 2.96804C0.128374 4.489 0.721583 6.26717 0.802114 6.51559C0.885765 6.76216 1.77168 10.5343 4.31903 12.64C6.4377 14.3884 6.99196 14.3311 7.53157 14.4357C8.07431 14.5386 9.45251 14.1907 9.9058 13.538C10.3583 12.8878 10.542 12.2687 10.5097 12.1177C10.4774 11.9668 10.3087 11.8336 10.0665 11.5926C9.82676 11.3524 8.63775 10.1875 8.40412 10.0045C8.17211 9.82481 7.99586 9.71707 7.71302 9.96857C7.43019 10.2201 6.6726 10.7548 6.44363 10.9114C6.21466 11.068 6.04172 11.0444 5.79883 10.806C5.55906 10.5658 4.73203 9.96561 3.94871 8.58563C3.33919 7.51224 3.0628 6.32978 2.98727 5.96919C2.91098 5.61116 3.10971 5.48717 3.29994 5.37452C3.4707 5.2755 3.69551 5.09827 3.89329 4.96014C4.08872 4.82132 4.17376 4.70795 4.33185 4.53033C4.48758 4.35201 4.494 4.1571 4.46923 3.98067C4.44446 3.80423 4.3404 2.1102 4.26664 1.42306Z" fill="#D4D4D6"/>
</svg>
