<svg xmlns="http://www.w3.org/2000/svg" xmlns:xlink="http://www.w3.org/1999/xlink"><defs>
    <clipPath id="clip0_3_28">
      <rect width="28" height="28" fill="white"/>
    </clipPath>
  </defs><symbol id="calendar" viewBox="0 0 25 26"><g fill="none">
<rect x="0.75" y="5.65625" width="23.5" height="19.5938" rx="1.25" stroke="#D7D9DF" stroke-width="1.5"/>
<path d="M6.4516 1V6.46875" stroke="#D7D9DF" stroke-width="1.5" stroke-linecap="round" stroke-linejoin="round"/>
<path d="M18.5484 1V6.46875" stroke="#D7D9DF" stroke-width="1.5" stroke-linecap="round" stroke-linejoin="round"/>
<path d="M24.1936 11.9375H0.806458" stroke="#D7D9DF" stroke-width="1.5"/>
</g></symbol><symbol id="clocks" viewBox="0 0 25 25"><g fill="none">
<path d="M12.5 0C5.625 0 0 5.625 0 12.5C0 19.375 5.625 25 12.5 25C19.375 25 25 19.375 25 12.5C25 5.625 19.375 0 12.5 0ZM12.5 23.2955C6.53409 23.2955 1.70455 18.4659 1.70455 12.5C1.70455 6.53409 6.53409 1.70455 12.5 1.70455C18.4659 1.70455 23.2955 6.53409 23.2955 12.5C23.2955 18.4659 18.4659 23.2955 12.5 23.2955Z" fill="#D7D9DF"/>
<path d="M18.1818 11.9319H13.0682V5.68186C13.0682 5.22732 12.6705 4.82959 12.2159 4.82959C11.7614 4.82959 11.3636 5.22732 11.3636 5.68186V13.6364H12.5H13.0682H18.1818C18.6364 13.6364 19.0341 13.2387 19.0341 12.7841C19.0341 12.3296 18.6364 11.9319 18.1818 11.9319Z" fill="#D7D9DF"/>
</g></symbol><symbol id="eye" viewBox="0 0 25 18"><g fill="none">
<path d="M15.0577 8.6539C15.7162 8.6539 16.25 8.12009 16.25 7.46159C16.25 6.8031 15.7162 6.26929 15.0577 6.26929C14.3992 6.26929 13.8654 6.8031 13.8654 7.46159C13.8654 8.12009 14.3992 8.6539 15.0577 8.6539Z" fill="#D7D9DF"/>
<path d="M13.2692 13.4231C15.5739 13.4231 17.4423 11.5547 17.4423 9.24998C17.4423 6.94525 15.5739 5.0769 13.2692 5.0769C10.9645 5.0769 9.09613 6.94525 9.09613 9.24998C9.09613 11.5547 10.9645 13.4231 13.2692 13.4231Z" stroke="#D7D9DF" stroke-width="1.5" stroke-linecap="round" stroke-linejoin="round"/>
<path d="M0.75 9.25C0.75 9.25 4.90179 1.5 12.375 1.5C19.8482 1.5 24 9.25 24 9.25C24 9.25 19.8482 17 12.375 17C4.90179 17 0.75 9.25 0.75 9.25Z" stroke="#D7D9DF" stroke-width="1.5" stroke-linecap="round" stroke-linejoin="round"/>
</g></symbol><symbol id="fb" viewBox="0 0 25 25"><g fill="none">
  <rect x="0.5" y="0.5" width="24" height="24" rx="3.5" stroke="currentColor"/>
  <path d="M15.6309 12.2H13.6667V20H10.75V12.2H9V9.8H10.75V8.35391C10.7523 6.24922 11.6022 5 14.013 5H16V7.4H14.667C13.7282 7.4 13.6667 7.76094 13.6667 8.43359V9.8H16L15.6309 12.2Z" fill="currentColor"/>
</g></symbol><symbol id="icon-eye" viewBox="0 0 25 17"><g fill="none">
<path d="M12.5 7.92308C12.8343 7.92308 13.1053 7.66478 13.1053 7.34615C13.1053 7.02753 12.8343 6.76923 12.5 6.76923C12.1657 6.76923 11.8947 7.02753 11.8947 7.34615C11.8947 7.66478 12.1657 7.92308 12.5 7.92308Z" stroke="white" stroke-linecap="round" stroke-linejoin="round"/>
<path d="M12.5 13.6923C15.5085 13.6923 17.9474 11.3676 17.9474 8.5C17.9474 5.63237 15.5085 3.30769 12.5 3.30769C9.4915 3.30769 7.05263 5.63237 7.05263 8.5C7.05263 11.3676 9.4915 13.6923 12.5 13.6923Z" stroke="white" stroke-linecap="round" stroke-linejoin="round"/>
<path d="M1 8.5C1 8.5 5.10714 1 12.5 1C19.8929 1 24 8.5 24 8.5C24 8.5 19.8929 16 12.5 16C5.10714 16 1 8.5 1 8.5Z" stroke="white" stroke-linecap="round" stroke-linejoin="round"/>
</g></symbol><symbol id="icon-quote" viewBox="0 0 19 17"><g fill="none">
<path d="M9.43648 13.7719C14.0958 13.7719 17.873 10.9128 17.873 7.38594C17.873 3.85908 14.0958 1 9.43648 1C4.77714 1 1 3.85908 1 7.38594C1 9.76618 2.72039 11.8423 5.27128 12.9406C5.33132 14.4175 4.76116 15.8419 3.41042 15.8419C4.45441 16.0324 6.99054 15.8599 9.1231 13.7676C9.22709 13.7704 9.33156 13.7719 9.43648 13.7719Z" stroke="white"/>
</g></symbol><symbol id="icon-tele" viewBox="0 0 11 15"><g fill="none">
<path fill-rule="evenodd" clip-rule="evenodd" d="M4.26664 1.42306C4.20509 0.842093 3.9813 0.76461 3.77802 0.695984C3.61254 0.638573 3.42117 0.581795 3.2298 0.525018C3.04079 0.468941 2.70625 0.452844 2.35179 0.685854C1.99571 0.915615 1.03163 1.44453 0.579624 2.96804C0.128374 4.489 0.721583 6.26717 0.802114 6.51559C0.885765 6.76216 1.77168 10.5343 4.31903 12.64C6.4377 14.3884 6.99196 14.3311 7.53157 14.4357C8.07431 14.5386 9.45251 14.1907 9.9058 13.538C10.3583 12.8878 10.542 12.2687 10.5097 12.1177C10.4774 11.9668 10.3087 11.8336 10.0665 11.5926C9.82676 11.3524 8.63775 10.1875 8.40412 10.0045C8.17211 9.82481 7.99586 9.71707 7.71302 9.96857C7.43019 10.2201 6.6726 10.7548 6.44363 10.9114C6.21466 11.068 6.04172 11.0444 5.79883 10.806C5.55906 10.5658 4.73203 9.96561 3.94871 8.58563C3.33919 7.51224 3.0628 6.32978 2.98727 5.96919C2.91098 5.61116 3.10971 5.48717 3.29994 5.37452C3.4707 5.2755 3.69551 5.09827 3.89329 4.96014C4.08872 4.82132 4.17376 4.70795 4.33185 4.53033C4.48758 4.35201 4.494 4.1571 4.46923 3.98067C4.44446 3.80423 4.3404 2.1102 4.26664 1.42306Z" fill="#D4D4D6"/>
</g></symbol><symbol id="inst" viewBox="0 0 25 25"><g fill="none">
  <rect x="0.5" y="0.5" width="24" height="24" rx="3.5" stroke="currentColor"/>
  <circle cx="12.5" cy="12.5" r="5" stroke="currentColor"/>
  <circle cx="19.5" cy="5.5" r="1.5" fill="currentColor"/>
</g></symbol><symbol id="left-arrow-md" viewBox="0 0 31 12"><g fill="none" stroke="currentColor">
  <g>
    <path d="M6 1L1 6L6 11"/>
    <path d="M0.999999 6L31 6"/>
  </g>
</g></symbol><symbol id="left-arrow" viewBox="0 0 21 12"><g fill="none" stroke="currentColor">
  <g>
    <path d="M6 1L1 6L6 11"/>
    <path d="M0.999999 6L21 6"/>
  </g>
</g></symbol><symbol id="like" viewBox="0 0 28 28"><g fill="none">
  <g clip-path="url(#clip0_3_28)">
    <path d="M26.7923 19.0356C27.3662 18.3036 27.6414 17.519 27.6062 16.711C27.5711 15.821 27.1729 15.1242 26.845 14.6968C27.2256 13.7482 27.372 12.2551 26.1014 11.0958C25.1704 10.2468 23.5895 9.86616 21.3996 9.97156C19.8597 10.0418 18.5715 10.3287 18.5188 10.3404H18.513C18.2202 10.3931 17.9099 10.4575 17.5937 10.5278C17.5703 10.1531 17.6347 9.22208 18.3256 7.12589C19.1453 4.63153 19.0985 2.72271 18.1734 1.44626C17.2014 0.105395 15.6497 0 15.193 0C14.7539 0 14.3498 0.181514 14.0629 0.515266C13.413 1.2706 13.4891 2.66416 13.5711 3.30824C12.7982 5.38101 10.6317 10.4634 8.79903 11.8745C8.7639 11.898 8.73463 11.9272 8.70535 11.9565C8.16666 12.5245 7.80363 13.1393 7.55771 13.678C7.21225 13.4906 6.81995 13.3852 6.39836 13.3852H2.82664C1.47992 13.3852 0.390839 14.4801 0.390839 15.821V25.3358C0.390839 26.6826 1.48578 27.7716 2.82664 27.7716H6.39836C6.91949 27.7716 7.40547 27.6077 7.80363 27.3266L9.17963 27.4906C9.39042 27.5199 13.1378 27.9941 16.9847 27.918C17.6815 27.9707 18.3373 28 18.9463 28C19.9943 28 20.9078 27.918 21.669 27.7541C23.4607 27.3735 24.6844 26.6123 25.3051 25.4939C25.7794 24.6391 25.7794 23.79 25.7033 23.2514C26.8685 22.1974 27.0734 21.0322 27.0324 20.2125C27.009 19.7382 26.9036 19.3342 26.7923 19.0356ZM2.82664 26.1907C2.35236 26.1907 1.97177 25.8043 1.97177 25.3358V15.8151C1.97177 15.3409 2.35822 14.9603 2.82664 14.9603H6.39836C6.87264 14.9603 7.25324 15.3467 7.25324 15.8151V25.33C7.25324 25.8043 6.86679 26.1849 6.39836 26.1849H2.82664V26.1907V26.1907ZM25.2934 18.3505C25.0475 18.6081 25.0006 19.0004 25.188 19.3049C25.188 19.3107 25.4281 19.7206 25.4573 20.2827C25.4983 21.0498 25.1294 21.729 24.3565 22.3087C24.0813 22.5194 23.9701 22.8825 24.0872 23.2104C24.0872 23.2162 24.339 23.9891 23.9291 24.721C23.5368 25.4237 22.6644 25.9272 21.3411 26.2083C20.2813 26.4366 18.8409 26.4776 17.0726 26.3371C17.0491 26.3371 17.0199 26.3371 16.9906 26.3371C13.2256 26.4191 9.41969 25.9272 9.37871 25.9214H9.37285L8.78147 25.8511C8.8166 25.6872 8.83416 25.5115 8.83416 25.3358V15.8151C8.83416 15.5634 8.79318 15.3174 8.72291 15.0891C8.82831 14.6968 9.12107 13.8243 9.812 13.0807C12.441 10.9962 15.0115 3.96403 15.1227 3.65956C15.1696 3.5366 15.1813 3.40192 15.1579 3.26725C15.0583 2.61146 15.0935 1.80928 15.234 1.56922C15.5443 1.57507 16.3816 1.6629 16.8852 2.35968C17.4824 3.18528 17.459 4.66081 16.8149 6.61648C15.8312 9.59682 15.7493 11.166 16.528 11.857C16.9145 12.2024 17.4297 12.22 17.8045 12.0853C18.1616 12.0033 18.5012 11.9331 18.8233 11.8804C18.8467 11.8745 18.876 11.8687 18.8994 11.8628C20.697 11.4705 23.9174 11.2304 25.0358 12.2493C25.9843 13.1159 25.3109 14.2635 25.2348 14.3864C25.0182 14.7143 25.0826 15.1418 25.3754 15.4053C25.3812 15.4111 25.996 15.9908 26.0253 16.7696C26.0487 17.2907 25.8028 17.8235 25.2934 18.3505Z" fill="currentColor"/>
  </g>
  
</g></symbol><symbol id="logo" viewBox="0 0 53 23"><g fill="none">
<path d="M4.5698 11.9H9.7598V13.11H5.9398V14.74H7.8998C8.24647 14.74 8.5598 14.7867 8.8398 14.88C9.12647 14.9733 9.36981 15.11 9.5698 15.29C9.77647 15.47 9.93314 15.69 10.0398 15.95C10.1531 16.21 10.2098 16.51 10.2098 16.85C10.2098 17.5433 10.0031 18.0767 9.58981 18.45C9.18314 18.8167 8.63647 19 7.9498 19H4.5698V11.9ZM7.8198 17.83C8.14647 17.83 8.39314 17.7433 8.5598 17.57C8.72647 17.39 8.80981 17.1467 8.80981 16.84C8.80981 16.5467 8.72647 16.31 8.5598 16.13C8.39314 15.95 8.14647 15.86 7.8198 15.86H5.9398V17.83H7.8198ZM14.3725 14.19C14.2992 15.1033 14.1992 15.87 14.0725 16.49C13.9459 17.11 13.7725 17.6133 13.5525 18C13.3325 18.38 13.0592 18.6533 12.7325 18.82C12.4059 18.9867 12.0059 19.07 11.5325 19.07L11.4525 17.83C11.6792 17.81 11.8759 17.7533 12.0425 17.66C12.2159 17.5667 12.3625 17.3833 12.4825 17.11C12.6092 16.8367 12.7159 16.4467 12.8025 15.94C12.8892 15.4267 12.9692 14.7467 13.0425 13.9L13.2125 11.9H17.5125V19H16.1425V13.11H14.4625L14.3725 14.19ZM23.0759 19.05C22.5559 19.05 22.0826 18.95 21.6559 18.75C21.2359 18.5433 20.8726 18.2733 20.5659 17.94C20.2659 17.6 20.0326 17.2133 19.8659 16.78C19.6992 16.3467 19.6159 15.9033 19.6159 15.45C19.6159 14.9767 19.7026 14.5233 19.8759 14.09C20.0559 13.6567 20.2992 13.2733 20.6059 12.94C20.9192 12.6067 21.2892 12.3433 21.7159 12.15C22.1426 11.95 22.6059 11.85 23.1059 11.85C23.6192 11.85 24.0859 11.9567 24.5059 12.17C24.9326 12.3767 25.2959 12.65 25.5959 12.99C25.8959 13.33 26.1292 13.7167 26.2959 14.15C26.4626 14.5833 26.5459 15.0233 26.5459 15.47C26.5459 15.9433 26.4592 16.3967 26.2859 16.83C26.1126 17.2567 25.8726 17.6367 25.5659 17.97C25.2592 18.2967 24.8926 18.56 24.4659 18.76C24.0392 18.9533 23.5759 19.05 23.0759 19.05ZM21.0159 15.45C21.0159 15.7567 21.0626 16.0533 21.1559 16.34C21.2492 16.6267 21.3826 16.88 21.5559 17.1C21.7359 17.32 21.9526 17.4967 22.2059 17.63C22.4659 17.7633 22.7592 17.83 23.0859 17.83C23.4192 17.83 23.7126 17.7633 23.9659 17.63C24.2259 17.49 24.4426 17.3067 24.6159 17.08C24.7959 16.8533 24.9292 16.6 25.0159 16.32C25.1092 16.0333 25.1559 15.7433 25.1559 15.45C25.1559 15.1433 25.1059 14.8467 25.0059 14.56C24.9126 14.2733 24.7759 14.02 24.5959 13.8C24.4226 13.58 24.2059 13.4067 23.9459 13.28C23.6926 13.1467 23.4059 13.08 23.0859 13.08C22.7526 13.08 22.4559 13.15 22.1959 13.29C21.9359 13.4233 21.7192 13.6033 21.5459 13.83C21.3726 14.05 21.2392 14.3033 21.1459 14.59C21.0592 14.87 21.0159 15.1567 21.0159 15.45ZM32.9545 13.11H29.9945V19H28.6245V11.9H32.9545V13.11ZM36.2289 16.88L39.8489 11.9H40.8989V19H39.5289V14.13L35.9589 19H34.8589V11.9H36.2289V16.88ZM44.807 14.82H45.367L47.527 11.9H49.087L46.537 15.33L49.317 19H47.777L45.497 16.06H44.807V19H43.437V11.9H44.807V14.82Z" fill="black"/>
<path d="M5 8L26.2844 1.01005C26.3043 1.00351 26.3257 1.00339 26.3457 1.00969L48.5 8" stroke="black" stroke-width="1.5" stroke-linecap="round"/>
</g></symbol><symbol id="right-arrow-md" viewBox="0 0 31 12"><g stroke="currentColor" fill="none">
  <path d="M25 1L30 6L25 11"/>
  <path d="M30 6L0 6"/>
</g></symbol><symbol id="right-arrow-xxl" viewBox="0 0 67 12"><g stroke="currentColor" fill="none">
  <path d="M61 1L66 6L61 11"/>
  <path d="M66 6.00001L0 6"/>
</g></symbol><symbol id="vk" viewBox="0 0 25 25"><g fill="none">
  <rect x="0.5" y="0.5" width="24" height="24" rx="3.5" stroke="currentColor"/>
  <path d="M18.3482 14.5483C19.5548 15.7177 19.8061 16.2895 19.8468 16.3598C20.3449 17.2269 19.2945 17.2949 19.2945 17.2949L17.2819 17.3253C17.2819 17.3253 16.8472 17.4144 16.279 17.0043C15.5252 16.4653 14.4951 15.0592 13.9427 15.242C13.3813 15.4271 13.5602 16.9012 13.5602 16.9012C13.5602 16.9012 13.5647 17.0816 13.4379 17.2269C13.2975 17.3792 13.0259 17.3206 13.0259 17.3206H12.4463C12.4463 17.3206 10.298 17.33 8.54574 15.4224C6.63733 13.3438 5.04132 9.45601 5.04132 9.45601C5.04132 9.45601 4.94398 9.20995 5.04811 9.07871C5.1681 8.93108 5.49182 8.93342 5.49182 8.93342H7.64474C7.64474 8.93342 7.84622 8.96154 7.9911 9.07403C8.11335 9.16542 8.179 9.33884 8.179 9.33884C8.179 9.33884 8.43934 10.063 8.90117 10.8972C9.79991 12.5236 10.2187 12.8798 10.5243 12.704C10.9681 12.4486 10.8345 10.4051 10.8345 10.4051C10.8345 10.4051 10.8435 9.66223 10.6104 9.33181C10.4293 9.07403 10.0919 8.99904 9.94253 8.97795C9.82029 8.96389 10.0195 8.66861 10.2776 8.53738C10.6647 8.34053 11.3506 8.32647 12.1588 8.33584C12.7882 8.34287 13.0259 8.3335 13.0259 8.3335C13.7684 8.52097 13.5171 9.24744 13.5171 10.9816C13.5171 11.5393 13.4198 12.3221 13.8046 12.5798C13.9699 12.6947 14.563 12.7111 15.5704 10.9183C16.0504 10.0677 16.4284 9.26853 16.4284 9.26853C16.4284 9.26853 16.5099 9.08809 16.6299 9.0131C16.7567 8.93342 16.9242 8.93342 16.9242 8.93342L19.1903 8.94514C19.1903 8.94514 19.8717 8.85609 19.9804 9.17948C20.0959 9.51694 19.702 10.1075 18.7783 11.3987C17.257 13.5196 17.0872 13.3227 18.3482 14.5483Z" fill="currentColor"/>
</g></symbol></svg>